<svg version="1.1" id="Layer_1" xmlns="http://www.w3.org/2000/svg" xmlns:xlink="http://www.w3.org/1999/xlink" x="0px" y="0px"
	 width="100%" viewBox="0 0 5061 1560" enable-background="new 0 0 5061 1560" xml:space="preserve">
<path fill="transparent" opacity="1.000000" stroke="none" 
	d="
M3274.000000,1562.000000 
	C2182.666748,1562.000000 1092.333618,1562.000000 2.000293,1562.000000 
	C2.000195,1042.000244 2.000195,522.000366 2.000098,2.000432 
	C1689.333008,2.000288 3376.666016,2.000288 5063.999023,2.000144 
	C5063.999512,521.999573 5063.999512,1041.999146 5064.000000,1561.999268 
	C4467.666504,1562.000000 3871.333252,1562.000000 3274.000000,1562.000000 
M1179.000000,147.673965 
	C877.678162,147.673981 576.356262,147.673981 275.034424,147.674042 
	C272.367859,147.674042 269.699860,147.617355 267.034943,147.684265 
	C232.699661,148.546188 206.632950,163.735794 188.690018,192.962280 
	C178.551697,209.476151 176.403946,227.953506 176.398376,246.670639 
	C176.295837,591.324036 176.311096,935.977417 176.399750,1280.630859 
	C176.401794,1288.566895 176.913498,1296.610962 178.255386,1304.421021 
	C186.475815,1352.265503 228.685837,1378.526001 264.774689,1378.496948 
	C616.760925,1378.213257 968.747498,1378.249512 1320.733887,1378.423584 
	C1364.423584,1378.445312 1407.625366,1341.333740 1407.636230,1290.925903 
	C1407.712036,938.939453 1407.684448,586.953003 1407.655029,234.966553 
	C1407.653442,215.658646 1401.288452,198.322098 1389.587036,183.186279 
	C1371.052002,159.211151 1346.159180,147.749390 1315.994751,147.695206 
	C1270.996582,147.614380 1225.998291,147.673965 1179.000000,147.673965 
M1615.671997,777.000000 
	C1615.671997,850.205994 1615.671997,923.411987 1615.671997,997.006470 
	C1646.078613,997.006470 1675.488770,997.006470 1705.191895,997.006470 
	C1706.649780,985.447449 1704.489746,974.277954 1706.654785,962.339600 
	C1709.633667,964.831177 1711.665649,966.475891 1713.638306,968.188721 
	C1753.407715,1002.723755 1799.530396,1014.148193 1850.320557,1002.445862 
	C1909.660645,988.773621 1948.576294,949.982910 1971.572632,895.057190 
	C1986.938354,858.356812 1988.376831,819.635986 1982.290894,780.547852 
	C1975.610596,737.643433 1956.995972,701.149902 1924.531982,671.929199 
	C1890.635254,641.418884 1851.182251,628.229614 1805.592773,631.461792 
	C1771.350342,633.889404 1742.044678,646.922485 1716.007935,668.523560 
	C1713.060547,670.968750 1710.056152,673.345032 1705.681763,676.882446 
	C1705.681763,660.799438 1705.681763,646.595825 1705.681763,632.392273 
	C1705.681763,618.066772 1705.681763,603.741272 1705.681763,589.415771 
	C1705.681763,574.757080 1705.687378,560.098450 1705.680298,545.439758 
	C1705.673340,531.258789 1705.714722,517.075562 1705.648438,502.857819 
	C1674.987671,502.857819 1645.812256,502.857819 1615.671875,502.857819 
	C1615.671875,593.934265 1615.671875,684.467163 1615.671997,777.000000 
M4441.027344,997.690369 
	C4462.254395,997.690369 4483.480957,997.690369 4504.972656,997.690369 
	C4504.972656,877.766724 4504.972656,759.003479 4504.972656,640.178955 
	C4475.051758,640.178955 4445.844238,640.178955 4415.315918,640.178955 
	C4415.315918,652.283936 4415.315918,663.930176 4415.315918,677.015076 
	C4410.976074,673.434631 4408.140625,671.164246 4405.379395,668.806274 
	C4364.201660,633.640869 4316.863281,623.172424 4264.755371,635.502747 
	C4215.645020,647.123901 4181.303223,678.389709 4157.990234,721.965149 
	C4137.571289,760.131653 4133.503906,801.464111 4137.527832,844.028992 
	C4141.212891,883.011719 4155.469238,917.358704 4181.165039,946.936584 
	C4217.770508,989.072815 4263.469727,1010.030701 4319.690430,1006.073181 
	C4353.110352,1003.720581 4381.833496,990.159058 4407.006836,968.478333 
	C4409.359863,966.451843 4411.910645,964.654480 4416.156250,961.367615 
	C4416.156250,974.878418 4416.156250,985.979126 4416.156250,997.690308 
	C4424.467773,997.690308 4431.754883,997.690308 4441.027344,997.690369 
M3954.475098,630.351746 
	C3912.236328,630.094299 3876.796143,647.366882 3843.681396,674.952209 
	C3843.681396,661.787170 3843.681396,650.582581 3843.681396,639.377930 
	C3843.681396,628.045044 3843.681396,616.712097 3843.681396,605.379211 
	C3843.681396,593.713013 3843.681396,582.046753 3843.681396,570.380554 
	C3843.681396,559.047668 3843.714111,547.714661 3843.672119,536.381958 
	C3843.630859,525.198059 3843.866699,513.997925 3843.502197,502.897430 
	C3812.915771,502.897430 3783.726074,502.897430 3754.315430,502.897430 
	C3754.315430,667.939087 3754.315430,832.393738 3754.315430,997.722473 
	C3784.377441,997.458130 3813.797363,998.178772 3843.681396,997.244446 
	C3843.681396,992.713074 3843.671143,989.400085 3843.683105,986.087158 
	C3843.896484,927.103455 3843.950195,868.118408 3844.424805,809.136780 
	C3844.570068,791.083923 3847.504395,773.347839 3855.928955,757.065552 
	C3867.154785,735.368713 3883.329102,719.310791 3908.299805,714.841187 
	C3934.076172,710.227478 3959.457520,718.919556 3970.763916,744.412598 
	C3974.088623,751.908508 3976.689209,760.120483 3977.567383,768.226929 
	C3979.602539,787.012817 3981.318115,805.925842 3981.494629,824.802917 
	C3981.999268,878.796143 3981.663330,932.797058 3981.693359,986.794983 
	C3981.695312,990.282776 3982.002197,993.770508 3982.187500,997.686890 
	C4012.190186,997.679504 4040.995361,997.711426 4070.327637,997.666077 
	C4070.327637,992.533752 4070.327393,988.886902 4070.327393,985.240051 
	C4070.327393,911.576233 4070.414551,837.912231 4070.235107,764.248840 
	C4070.207764,752.982178 4069.647949,741.623962 4068.138184,730.470093 
	C4061.866211,684.138977 4035.854980,653.387878 3992.201172,637.905396 
	C3980.786621,633.857056 3968.266846,632.925476 3954.475098,630.351746 
M2771.375244,926.302795 
	C2752.786133,924.831360 2735.504150,919.532227 2720.185303,908.630432 
	C2698.751953,893.377380 2686.755615,872.362427 2681.732666,845.693359 
	C2777.625244,845.685608 2872.709961,845.695862 2968.023193,845.687073 
	C2968.699219,821.242676 2968.932373,798.383179 2963.934570,775.719604 
	C2951.516602,719.406311 2920.866943,676.670776 2869.174316,650.528625 
	C2829.657715,630.544067 2787.272705,626.436707 2743.989502,633.801514 
	C2682.710449,644.228394 2639.130127,679.075989 2612.196533,734.316345 
	C2592.623535,774.460571 2589.281006,817.337097 2597.817383,860.803223 
	C2610.319092,924.459961 2647.707520,968.539551 2707.305908,993.150024 
	C2742.523682,1007.692932 2779.664307,1008.628662 2817.181152,1004.427734 
	C2868.213135,998.713318 2909.149658,975.527893 2940.257080,934.804688 
	C2941.945801,932.594177 2943.290039,930.120361 2945.092285,927.303223 
	C2919.058350,915.060120 2894.164795,903.353271 2869.396729,891.705505 
	C2857.492188,901.815613 2845.687744,910.818359 2831.834473,917.025696 
	C2813.067627,925.434692 2793.430664,927.185364 2771.375244,926.302795 
M3366.187744,895.101440 
	C3380.827393,862.069397 3385.402832,827.658386 3380.342773,791.922058 
	C3373.825928,745.897888 3353.276123,707.277405 3317.870850,677.237915 
	C3277.883301,643.311157 3231.585205,627.811890 3178.833496,631.495483 
	C3151.746582,633.386841 3126.565918,640.641418 3103.247070,654.197266 
	C3071.218994,672.816101 3045.568115,697.937500 3028.306641,730.962341 
	C3006.436035,772.805176 3002.047607,817.321472 3012.345947,862.718811 
	C3025.777100,921.925598 3061.837646,963.957703 3116.188965,990.227722 
	C3149.865723,1006.505066 3185.695068,1009.807312 3222.258789,1004.231567 
	C3289.181152,994.026001 3336.724609,957.560303 3366.187744,895.101440 
M2528.327393,980.891357 
	C2528.327393,867.369629 2528.327393,753.847961 2528.327393,640.155396 
	C2497.801025,640.155396 2468.606445,640.155396 2438.318604,640.155396 
	C2438.318604,644.175659 2438.318604,647.754944 2438.318604,651.334229 
	C2438.318604,704.000488 2438.624023,756.669678 2438.133301,809.331360 
	C2437.985596,825.202148 2436.991699,841.318542 2433.963379,856.850220 
	C2429.293701,880.800354 2417.788818,901.556213 2396.021729,914.261353 
	C2374.072510,927.072693 2351.146973,928.415466 2329.020264,914.322327 
	C2315.966309,906.007874 2308.795898,892.901917 2306.367432,878.061951 
	C2303.803223,862.390869 2302.020020,846.414734 2301.885010,830.554993 
	C2301.377930,770.893066 2301.681396,711.224243 2301.681396,651.558044 
	C2301.681396,647.969971 2301.681396,644.381836 2301.681396,640.275146 
	C2271.301025,640.275146 2241.877197,640.275146 2211.672607,640.275146 
	C2211.672607,644.457947 2211.672363,648.063843 2211.672363,651.669739 
	C2211.672363,725.002502 2211.575684,798.335571 2211.768799,871.667847 
	C2211.800293,883.599182 2212.378662,895.627502 2213.992920,907.434753 
	C2216.926025,928.885681 2224.014893,949.087036 2238.901855,965.238770 
	C2272.858398,1002.080566 2315.149902,1012.935181 2363.417725,1003.008423 
	C2388.482422,997.853760 2409.547607,984.609131 2429.428223,969.181641 
	C2431.881592,967.278015 2434.451660,965.525330 2438.711182,962.439758 
	C2438.711182,975.475281 2438.711182,986.266113 2438.711182,997.140747 
	C2468.990967,997.140747 2498.177002,997.140747 2528.327637,997.140747 
	C2528.327637,992.026733 2528.327637,987.438049 2528.327393,980.891357 
M4681.680664,850.999878 
	C4682.366211,831.741516 4682.193359,812.404236 4683.953613,793.244629 
	C4686.178223,769.030579 4695.385254,747.526611 4713.794922,730.797241 
	C4731.742188,714.487549 4752.802246,709.745850 4775.912109,716.006775 
	C4799.187988,722.312622 4810.049805,739.688904 4814.591797,762.186523 
	C4819.425781,786.126282 4818.865234,810.482117 4819.358887,834.613586 
	C4820.394043,885.239075 4819.665039,935.900513 4819.691895,986.547180 
	C4819.693848,990.065186 4819.960449,993.583069 4820.101074,997.038086 
	C4850.000977,997.038086 4878.812988,997.038086 4907.826172,997.038086 
	C4908.028809,994.780029 4908.301758,993.151123 4908.302246,991.522095 
	C4908.324219,911.220459 4908.554688,830.917725 4908.171387,750.617920 
	C4908.067383,728.837463 4904.100098,707.313599 4892.633789,688.426514 
	C4868.130371,648.066284 4830.395996,630.879028 4784.511230,630.586182 
	C4767.614258,630.478271 4750.989258,634.381836 4735.137207,641.128113 
	C4719.359375,647.842712 4705.356445,657.219849 4691.766113,667.439941 
	C4688.852539,669.630981 4686.375977,673.016235 4681.385742,673.183228 
	C4681.385742,662.010254 4681.385742,651.426575 4681.385742,640.269897 
	C4651.354492,640.269897 4621.940430,640.269897 4592.383789,640.269897 
	C4592.383789,759.525940 4592.383789,878.241394 4592.383789,997.159363 
	C4622.260254,997.159363 4651.423828,997.159363 4681.680664,997.159363 
	C4681.680664,948.759277 4681.680664,900.879639 4681.680664,850.999878 
M3432.872070,921.881042 
	C3426.250488,932.191956 3419.628906,942.502869 3412.594238,953.457336 
	C3416.531738,956.413147 3419.739990,959.312683 3423.387939,961.468323 
	C3434.549316,968.063721 3445.574219,974.996155 3457.196533,980.685608 
	C3505.874268,1004.514465 3556.950439,1012.233582 3610.342529,1001.661987 
	C3632.202637,997.333740 3652.217285,988.676147 3669.022705,973.543945 
	C3692.618896,952.296692 3701.402100,924.973328 3702.413574,894.109497 
	C3703.552246,859.367615 3689.208008,832.803711 3660.372070,814.360291 
	C3648.130371,806.530396 3634.893555,799.881836 3621.396973,794.473633 
	C3599.196777,785.577820 3576.260986,778.530640 3553.955078,769.880432 
	C3544.450928,766.194763 3535.257324,761.161072 3526.814697,755.426575 
	C3516.648438,748.521423 3512.961914,734.433472 3521.526611,721.943359 
	C3525.881592,715.592590 3532.093994,711.969666 3539.307129,709.870483 
	C3551.412354,706.347656 3563.812988,706.792969 3575.956055,708.710327 
	C3593.757080,711.521301 3610.708740,717.506836 3626.975586,725.310242 
	C3636.785156,730.016113 3646.566406,734.781433 3656.908691,739.785339 
	C3669.111084,717.634888 3681.048584,695.965149 3693.063965,674.154297 
	C3689.658447,671.884155 3687.538330,670.288452 3685.255127,668.976135 
	C3649.229492,648.270203 3610.790771,635.843262 3568.985107,634.198303 
	C3544.388672,633.230469 3520.569824,636.189026 3497.791016,645.677246 
	C3468.794678,657.755188 3447.495117,677.645020 3436.421631,707.547241 
	C3431.024902,722.119385 3429.964355,737.263000 3430.238037,752.689270 
	C3430.742920,781.124756 3441.996338,804.053040 3464.177246,821.748474 
	C3479.487305,833.962463 3496.955566,842.081787 3515.354736,848.171509 
	C3536.490479,855.166992 3557.999023,861.062988 3579.005859,868.408386 
	C3588.282715,871.652100 3597.255127,876.507141 3605.398926,882.050964 
	C3614.367188,888.155945 3617.432373,897.331482 3614.506836,908.353088 
	C3611.771973,918.656738 3605.164551,924.909424 3595.556396,928.499023 
	C3579.729004,934.412048 3563.310059,933.494690 3547.233154,931.024780 
	C3516.517090,926.305725 3488.725586,913.741638 3462.892578,896.676697 
	C3459.924561,894.716125 3456.834473,892.940491 3453.321533,890.784790 
	C3446.448975,901.257202 3440.073730,910.972046 3432.872070,921.881042 
M2045.753296,505.581085 
	C2045.725586,666.886902 2045.694580,828.192688 2045.701904,989.498535 
	C2045.702026,992.025024 2046.172974,994.551575 2046.429810,997.133728 
	C2076.314453,997.133728 2105.481934,997.133728 2135.098145,997.133728 
	C2135.098145,832.147461 2135.098145,667.719299 2135.098145,502.836304 
	C2132.971924,502.628174 2131.374268,502.337219 2129.776367,502.335419 
	C2103.780762,502.306122 2077.785156,502.284241 2051.789795,502.374237 
	C2049.932617,502.380646 2048.078613,503.267517 2045.753296,505.581085 
z"/>
<path fill="#0875BB" opacity="1.000000" stroke="none" 
	d="
M1180.000000,147.673889 
	C1225.998291,147.673965 1270.996582,147.614380 1315.994751,147.695206 
	C1346.159180,147.749390 1371.052002,159.211151 1389.587036,183.186279 
	C1401.288452,198.322098 1407.653442,215.658646 1407.655029,234.966553 
	C1407.684448,586.953003 1407.712036,938.939453 1407.636230,1290.925903 
	C1407.625366,1341.333740 1364.423584,1378.445312 1320.733887,1378.423584 
	C968.747498,1378.249512 616.760925,1378.213257 264.774689,1378.496948 
	C228.685837,1378.526001 186.475815,1352.265503 178.255386,1304.421021 
	C176.913498,1296.610962 176.401794,1288.566895 176.399750,1280.630859 
	C176.311096,935.977417 176.295837,591.324036 176.398376,246.670639 
	C176.403946,227.953506 178.551697,209.476151 188.690018,192.962280 
	C206.632950,163.735794 232.699661,148.546188 267.034943,147.684265 
	C269.699860,147.617355 272.367859,147.674042 275.034424,147.674042 
	C576.356262,147.673981 877.678162,147.673981 1180.000000,147.673889 
M810.810730,659.813416 
	C806.046570,672.732971 801.282410,685.652527 796.445007,698.770752 
	C766.661621,601.237854 704.811646,534.248108 604.887329,508.829071 
	C505.139038,483.454803 419.024445,512.804871 345.366394,586.043335 
	C345.366394,556.426086 345.366394,528.881226 345.366394,501.012482 
	C322.464203,501.012482 300.365753,501.012482 277.668365,501.012482 
	C277.668365,505.346283 277.668365,508.986603 277.668365,512.626953 
	C277.668365,594.948853 277.952179,677.272034 277.559052,759.592041 
	C277.333099,806.907471 288.193939,851.163513 311.456787,892.293579 
	C338.633606,940.343811 377.238922,976.528503 426.891144,1000.465393 
	C472.916046,1022.653564 521.503845,1030.504883 572.388977,1024.376465 
	C614.153809,1019.346497 652.523499,1005.176514 687.131348,981.581299 
	C740.226929,945.381348 775.878479,896.187866 793.882629,834.358643 
	C794.533081,832.124878 795.644043,830.025269 797.020569,826.704895 
	C797.744141,829.476440 798.056458,830.768677 798.421326,832.045959 
	C798.876770,833.639954 799.369263,835.223389 799.856628,836.808105 
	C822.572632,910.667969 868.394165,965.390320 937.450989,999.739990 
	C988.021362,1024.894287 1041.718994,1032.121216 1097.549316,1022.360229 
	C1156.711304,1012.016724 1206.554199,984.338379 1246.902100,940.264648 
	C1289.313477,893.936829 1311.599365,838.569946 1315.504883,776.061707 
	C1317.212524,748.732117 1313.979858,721.603027 1306.462524,695.187683 
	C1284.567749,618.250183 1237.790283,561.669373 1166.058105,526.377502 
	C1113.970215,500.750397 1058.914551,493.962097 1002.014832,505.251251 
	C946.231140,516.319031 898.721558,542.684021 859.904053,584.548706 
	C839.562317,606.487183 823.206421,630.919861 810.810730,659.813416 
z"/>
<path fill="#0976BB" opacity="1.000000" stroke="none" 
	d="
M1615.671875,776.000000 
	C1615.671875,684.467163 1615.671875,593.934265 1615.671875,502.857819 
	C1645.812256,502.857819 1674.987671,502.857819 1705.648438,502.857819 
	C1705.714722,517.075562 1705.673340,531.258789 1705.680298,545.439758 
	C1705.687378,560.098450 1705.681763,574.757080 1705.681763,589.415771 
	C1705.681763,603.741272 1705.681763,618.066772 1705.681763,632.392273 
	C1705.681763,646.595825 1705.681763,660.799438 1705.681763,676.882446 
	C1710.056152,673.345032 1713.060547,670.968750 1716.007935,668.523560 
	C1742.044678,646.922485 1771.350342,633.889404 1805.592773,631.461792 
	C1851.182251,628.229614 1890.635254,641.418884 1924.531982,671.929199 
	C1956.995972,701.149902 1975.610596,737.643433 1982.290894,780.547852 
	C1988.376831,819.635986 1986.938354,858.356812 1971.572632,895.057190 
	C1948.576294,949.982910 1909.660645,988.773621 1850.320557,1002.445862 
	C1799.530396,1014.148193 1753.407715,1002.723755 1713.638306,968.188721 
	C1711.665649,966.475891 1709.633667,964.831177 1706.654785,962.339600 
	C1704.489746,974.277954 1706.649780,985.447449 1705.191895,997.006470 
	C1675.488770,997.006470 1646.078613,997.006470 1615.671997,997.006470 
	C1615.671997,923.411987 1615.671997,850.205994 1615.671875,776.000000 
M1702.998047,796.405579 
	C1700.901489,812.660889 1700.648682,828.910217 1703.945312,845.029358 
	C1712.473267,886.728027 1744.072632,919.797913 1790.451660,923.488831 
	C1834.640625,927.005493 1869.455322,902.682617 1885.940674,865.204468 
	C1894.093872,846.669495 1895.703491,827.151367 1894.539917,806.882263 
	C1891.509277,754.093506 1846.323853,706.074402 1783.564331,715.573853 
	C1742.327271,721.815613 1709.969238,753.242798 1702.998047,796.405579 
z"/>
<path fill="#0A76BB" opacity="1.000000" stroke="none" 
	d="
M4440.034668,997.690308 
	C4431.754883,997.690308 4424.467773,997.690308 4416.156250,997.690308 
	C4416.156250,985.979126 4416.156250,974.878418 4416.156250,961.367615 
	C4411.910645,964.654480 4409.359863,966.451843 4407.006836,968.478333 
	C4381.833496,990.159058 4353.110352,1003.720581 4319.690430,1006.073181 
	C4263.469727,1010.030701 4217.770508,989.072815 4181.165039,946.936584 
	C4155.469238,917.358704 4141.212891,883.011719 4137.527832,844.028992 
	C4133.503906,801.464111 4137.571289,760.131653 4157.990234,721.965149 
	C4181.303223,678.389709 4215.645020,647.123901 4264.755371,635.502747 
	C4316.863281,623.172424 4364.201660,633.640869 4405.379395,668.806274 
	C4408.140625,671.164246 4410.976074,673.434631 4415.315918,677.015076 
	C4415.315918,663.930176 4415.315918,652.283936 4415.315918,640.178955 
	C4445.844238,640.178955 4475.051758,640.178955 4504.972656,640.178955 
	C4504.972656,759.003479 4504.972656,877.766724 4504.972656,997.690369 
	C4483.480957,997.690369 4462.254395,997.690369 4440.034668,997.690308 
M4355.109375,719.642822 
	C4346.349121,717.873840 4337.649414,715.007874 4328.818359,714.519348 
	C4282.090820,711.934082 4246.515625,738.979736 4232.577148,778.777649 
	C4225.515625,798.941223 4224.756836,819.644897 4228.022949,840.681396 
	C4234.802734,884.338867 4272.057129,918.311646 4309.247070,922.818420 
	C4349.704590,927.721436 4387.573242,908.676514 4406.049805,875.495911 
	C4416.722656,856.329651 4419.885742,835.718933 4419.798828,814.058594 
	C4419.631836,772.637085 4396.297363,734.876160 4355.109375,719.642822 
z"/>
<path fill="#0976BB" opacity="1.000000" stroke="none" 
	d="
M3955.364746,630.457153 
	C3968.266846,632.925476 3980.786621,633.857056 3992.201172,637.905396 
	C4035.854980,653.387878 4061.866211,684.138977 4068.138184,730.470093 
	C4069.647949,741.623962 4070.207764,752.982178 4070.235107,764.248840 
	C4070.414551,837.912231 4070.327393,911.576233 4070.327393,985.240051 
	C4070.327393,988.886902 4070.327637,992.533752 4070.327637,997.666077 
	C4040.995361,997.711426 4012.190186,997.679504 3982.187500,997.686890 
	C3982.002197,993.770508 3981.695312,990.282776 3981.693359,986.794983 
	C3981.663330,932.797058 3981.999268,878.796143 3981.494629,824.802917 
	C3981.318115,805.925842 3979.602539,787.012817 3977.567383,768.226929 
	C3976.689209,760.120483 3974.088623,751.908508 3970.763916,744.412598 
	C3959.457520,718.919556 3934.076172,710.227478 3908.299805,714.841187 
	C3883.329102,719.310791 3867.154785,735.368713 3855.928955,757.065552 
	C3847.504395,773.347839 3844.570068,791.083923 3844.424805,809.136780 
	C3843.950195,868.118408 3843.896484,927.103455 3843.683105,986.087158 
	C3843.671143,989.400085 3843.681396,992.713074 3843.681396,997.244446 
	C3813.797363,998.178772 3784.377441,997.458130 3754.315430,997.722473 
	C3754.315430,832.393738 3754.315430,667.939087 3754.315430,502.897430 
	C3783.726074,502.897430 3812.915771,502.897430 3843.502197,502.897430 
	C3843.866699,513.997925 3843.630859,525.198059 3843.672119,536.381958 
	C3843.714111,547.714661 3843.681396,559.047668 3843.681396,570.380554 
	C3843.681396,582.046753 3843.681396,593.713013 3843.681396,605.379211 
	C3843.681396,616.712097 3843.681396,628.045044 3843.681396,639.377930 
	C3843.681396,650.582581 3843.681396,661.787170 3843.681396,674.952209 
	C3876.796143,647.366882 3912.236328,630.094299 3955.364746,630.457153 
z"/>
<path fill="#0A76BB" opacity="1.000000" stroke="none" 
	d="
M2772.331543,926.305725 
	C2793.430664,927.185364 2813.067627,925.434692 2831.834473,917.025696 
	C2845.687744,910.818359 2857.492188,901.815613 2869.396729,891.705505 
	C2894.164795,903.353271 2919.058350,915.060120 2945.092285,927.303223 
	C2943.290039,930.120361 2941.945801,932.594177 2940.257080,934.804688 
	C2909.149658,975.527893 2868.213135,998.713318 2817.181152,1004.427734 
	C2779.664307,1008.628662 2742.523682,1007.692932 2707.305908,993.150024 
	C2647.707520,968.539551 2610.319092,924.459961 2597.817383,860.803223 
	C2589.281006,817.337097 2592.623535,774.460571 2612.196533,734.316345 
	C2639.130127,679.075989 2682.710449,644.228394 2743.989502,633.801514 
	C2787.272705,626.436707 2829.657715,630.544067 2869.174316,650.528625 
	C2920.866943,676.670776 2951.516602,719.406311 2963.934570,775.719604 
	C2968.932373,798.383179 2968.699219,821.242676 2968.023193,845.687073 
	C2872.709961,845.695862 2777.625244,845.685608 2681.732666,845.693359 
	C2686.755615,872.362427 2698.751953,893.377380 2720.185303,908.630432 
	C2735.504150,919.532227 2752.786133,924.831360 2772.331543,926.305725 
M2844.058105,726.858643 
	C2823.889648,712.076477 2801.066162,706.095947 2776.424072,707.780579 
	C2730.732666,710.904175 2703.595215,733.107971 2686.973877,771.537903 
	C2686.809570,771.917664 2687.454834,772.647644 2687.676514,773.116943 
	C2750.469727,773.116943 2813.198486,773.116943 2876.016113,773.116943 
	C2873.470947,757.375305 2862.856934,741.912476 2844.058105,726.858643 
z"/>
<path fill="#0976BB" opacity="1.000000" stroke="none" 
	d="
M3365.897461,895.800903 
	C3336.724609,957.560303 3289.181152,994.026001 3222.258789,1004.231567 
	C3185.695068,1009.807312 3149.865723,1006.505066 3116.188965,990.227722 
	C3061.837646,963.957703 3025.777100,921.925598 3012.345947,862.718811 
	C3002.047607,817.321472 3006.436035,772.805176 3028.306641,730.962341 
	C3045.568115,697.937500 3071.218994,672.816101 3103.247070,654.197266 
	C3126.565918,640.641418 3151.746582,633.386841 3178.833496,631.495483 
	C3231.585205,627.811890 3277.883301,643.311157 3317.870850,677.237915 
	C3353.276123,707.277405 3373.825928,745.897888 3380.342773,791.922058 
	C3385.402832,827.658386 3380.827393,862.069397 3365.897461,895.800903 
M3205.986328,716.396423 
	C3202.988037,716.341919 3199.989258,716.314575 3196.991699,716.228821 
	C3160.146729,715.174255 3132.066650,730.940796 3112.566162,761.620422 
	C3098.409668,783.892273 3095.485352,809.009399 3098.479736,834.676819 
	C3102.139404,866.049011 3116.156982,892.037598 3143.584717,908.656006 
	C3192.896484,938.534302 3265.044678,920.582031 3286.029053,853.307373 
	C3291.079102,837.117249 3291.343750,820.476013 3289.781738,803.868591 
	C3287.564453,780.291870 3278.591309,759.739624 3261.470215,742.767761 
	C3246.413818,727.842407 3228.390625,719.766907 3205.986328,716.396423 
z"/>
<path fill="#0976BB" opacity="1.000000" stroke="none" 
	d="
M2528.327637,981.870361 
	C2528.327637,987.438049 2528.327637,992.026733 2528.327637,997.140747 
	C2498.177002,997.140747 2468.990967,997.140747 2438.711182,997.140747 
	C2438.711182,986.266113 2438.711182,975.475281 2438.711182,962.439758 
	C2434.451660,965.525330 2431.881592,967.278015 2429.428223,969.181641 
	C2409.547607,984.609131 2388.482422,997.853760 2363.417725,1003.008423 
	C2315.149902,1012.935181 2272.858398,1002.080566 2238.901855,965.238770 
	C2224.014893,949.087036 2216.926025,928.885681 2213.992920,907.434753 
	C2212.378662,895.627502 2211.800293,883.599182 2211.768799,871.667847 
	C2211.575684,798.335571 2211.672363,725.002502 2211.672363,651.669739 
	C2211.672363,648.063843 2211.672607,644.457947 2211.672607,640.275146 
	C2241.877197,640.275146 2271.301025,640.275146 2301.681396,640.275146 
	C2301.681396,644.381836 2301.681396,647.969971 2301.681396,651.558044 
	C2301.681396,711.224243 2301.377930,770.893066 2301.885010,830.554993 
	C2302.020020,846.414734 2303.803223,862.390869 2306.367432,878.061951 
	C2308.795898,892.901917 2315.966309,906.007874 2329.020264,914.322327 
	C2351.146973,928.415466 2374.072510,927.072693 2396.021729,914.261353 
	C2417.788818,901.556213 2429.293701,880.800354 2433.963379,856.850220 
	C2436.991699,841.318542 2437.985596,825.202148 2438.133301,809.331360 
	C2438.624023,756.669678 2438.318604,704.000488 2438.318604,651.334229 
	C2438.318604,647.754944 2438.318604,644.175659 2438.318604,640.155396 
	C2468.606445,640.155396 2497.801025,640.155396 2528.327393,640.155396 
	C2528.327393,753.847961 2528.327393,867.369629 2528.327637,981.870361 
z"/>
<path fill="#0976BB" opacity="1.000000" stroke="none" 
	d="
M4681.680664,851.999878 
	C4681.680664,900.879639 4681.680664,948.759277 4681.680664,997.159363 
	C4651.423828,997.159363 4622.260254,997.159363 4592.383789,997.159363 
	C4592.383789,878.241394 4592.383789,759.525940 4592.383789,640.269897 
	C4621.940430,640.269897 4651.354492,640.269897 4681.385742,640.269897 
	C4681.385742,651.426575 4681.385742,662.010254 4681.385742,673.183228 
	C4686.375977,673.016235 4688.852539,669.630981 4691.766113,667.439941 
	C4705.356445,657.219849 4719.359375,647.842712 4735.137207,641.128113 
	C4750.989258,634.381836 4767.614258,630.478271 4784.511230,630.586182 
	C4830.395996,630.879028 4868.130371,648.066284 4892.633789,688.426514 
	C4904.100098,707.313599 4908.067383,728.837463 4908.171387,750.617920 
	C4908.554688,830.917725 4908.324219,911.220459 4908.302246,991.522095 
	C4908.301758,993.151123 4908.028809,994.780029 4907.826172,997.038086 
	C4878.812988,997.038086 4850.000977,997.038086 4820.101074,997.038086 
	C4819.960449,993.583069 4819.693848,990.065186 4819.691895,986.547180 
	C4819.665039,935.900513 4820.394043,885.239075 4819.358887,834.613586 
	C4818.865234,810.482117 4819.425781,786.126282 4814.591797,762.186523 
	C4810.049805,739.688904 4799.187988,722.312622 4775.912109,716.006775 
	C4752.802246,709.745850 4731.742188,714.487549 4713.794922,730.797241 
	C4695.385254,747.526611 4686.178223,769.030579 4683.953613,793.244629 
	C4682.193359,812.404236 4682.366211,831.741516 4681.680664,851.999878 
z"/>
<path fill="#0A76BC" opacity="1.000000" stroke="none" 
	d="
M3433.285156,921.283997 
	C3440.073730,910.972046 3446.448975,901.257202 3453.321533,890.784790 
	C3456.834473,892.940491 3459.924561,894.716125 3462.892578,896.676697 
	C3488.725586,913.741638 3516.517090,926.305725 3547.233154,931.024780 
	C3563.310059,933.494690 3579.729004,934.412048 3595.556396,928.499023 
	C3605.164551,924.909424 3611.771973,918.656738 3614.506836,908.353088 
	C3617.432373,897.331482 3614.367188,888.155945 3605.398926,882.050964 
	C3597.255127,876.507141 3588.282715,871.652100 3579.005859,868.408386 
	C3557.999023,861.062988 3536.490479,855.166992 3515.354736,848.171509 
	C3496.955566,842.081787 3479.487305,833.962463 3464.177246,821.748474 
	C3441.996338,804.053040 3430.742920,781.124756 3430.238037,752.689270 
	C3429.964355,737.263000 3431.024902,722.119385 3436.421631,707.547241 
	C3447.495117,677.645020 3468.794678,657.755188 3497.791016,645.677246 
	C3520.569824,636.189026 3544.388672,633.230469 3568.985107,634.198303 
	C3610.790771,635.843262 3649.229492,648.270203 3685.255127,668.976135 
	C3687.538330,670.288452 3689.658447,671.884155 3693.063965,674.154297 
	C3681.048584,695.965149 3669.111084,717.634888 3656.908691,739.785339 
	C3646.566406,734.781433 3636.785156,730.016113 3626.975586,725.310242 
	C3610.708740,717.506836 3593.757080,711.521301 3575.956055,708.710327 
	C3563.812988,706.792969 3551.412354,706.347656 3539.307129,709.870483 
	C3532.093994,711.969666 3525.881592,715.592590 3521.526611,721.943359 
	C3512.961914,734.433472 3516.648438,748.521423 3526.814697,755.426575 
	C3535.257324,761.161072 3544.450928,766.194763 3553.955078,769.880432 
	C3576.260986,778.530640 3599.196777,785.577820 3621.396973,794.473633 
	C3634.893555,799.881836 3648.130371,806.530396 3660.372070,814.360291 
	C3689.208008,832.803711 3703.552246,859.367615 3702.413574,894.109497 
	C3701.402100,924.973328 3692.618896,952.296692 3669.022705,973.543945 
	C3652.217285,988.676147 3632.202637,997.333740 3610.342529,1001.661987 
	C3556.950439,1012.233582 3505.874268,1004.514465 3457.196533,980.685608 
	C3445.574219,974.996155 3434.549316,968.063721 3423.387939,961.468323 
	C3419.739990,959.312683 3416.531738,956.413147 3412.594238,953.457336 
	C3419.628906,942.502869 3426.250488,932.191956 3433.285156,921.283997 
z"/>
<path fill="#0A76BC" opacity="1.000000" stroke="none" 
	d="
M2045.988281,504.663025 
	C2048.078613,503.267517 2049.932617,502.380646 2051.789795,502.374237 
	C2077.785156,502.284241 2103.780762,502.306122 2129.776367,502.335419 
	C2131.374268,502.337219 2132.971924,502.628174 2135.098145,502.836304 
	C2135.098145,667.719299 2135.098145,832.147461 2135.098145,997.133728 
	C2105.481934,997.133728 2076.314453,997.133728 2046.429810,997.133728 
	C2046.172974,994.551575 2045.702026,992.025024 2045.701904,989.498535 
	C2045.694580,828.192688 2045.725586,666.886902 2045.988281,504.663025 
z"/>
<path fill="transparent" opacity="1.000000" stroke="none" 
	d="
M811.140137,659.126587 
	C823.206421,630.919861 839.562317,606.487183 859.904053,584.548706 
	C898.721558,542.684021 946.231140,516.319031 1002.014832,505.251251 
	C1058.914551,493.962097 1113.970215,500.750397 1166.058105,526.377502 
	C1237.790283,561.669373 1284.567749,618.250183 1306.462524,695.187683 
	C1313.979858,721.603027 1317.212524,748.732117 1315.504883,776.061707 
	C1311.599365,838.569946 1289.313477,893.936829 1246.902100,940.264648 
	C1206.554199,984.338379 1156.711304,1012.016724 1097.549316,1022.360229 
	C1041.718994,1032.121216 988.021362,1024.894287 937.450989,999.739990 
	C868.394165,965.390320 822.572632,910.667969 799.856628,836.808105 
	C799.369263,835.223389 798.876770,833.639954 798.421326,832.045959 
	C798.056458,830.768677 797.744141,829.476440 797.020569,826.704895 
	C795.644043,830.025269 794.533081,832.124878 793.882629,834.358643 
	C775.878479,896.187866 740.226929,945.381348 687.131348,981.581299 
	C652.523499,1005.176514 614.153809,1019.346497 572.388977,1024.376465 
	C521.503845,1030.504883 472.916046,1022.653564 426.891144,1000.465393 
	C377.238922,976.528503 338.633606,940.343811 311.456787,892.293579 
	C288.193939,851.163513 277.333099,806.907471 277.559052,759.592041 
	C277.952179,677.272034 277.668365,594.948853 277.668365,512.626953 
	C277.668365,508.986603 277.668365,505.346283 277.668365,501.012482 
	C300.365753,501.012482 322.464203,501.012482 345.366394,501.012482 
	C345.366394,528.881226 345.366394,556.426086 345.366394,586.043335 
	C419.024445,512.804871 505.139038,483.454803 604.887329,508.829071 
	C704.811646,534.248108 766.661621,601.237854 796.445007,698.770752 
	C801.282410,685.652527 806.046570,672.732971 811.140137,659.126587 
M1234.908691,833.798279 
	C1246.444458,803.403931 1250.245972,772.090576 1246.323608,739.798767 
	C1240.277100,690.020325 1218.384399,648.343262 1180.562256,615.786926 
	C1132.457031,574.379028 1076.364502,559.728882 1014.147888,571.930786 
	C951.640137,584.189819 905.329712,619.824890 877.399597,676.600281 
	C848.809387,734.717285 849.335693,794.406128 878.604614,852.473083 
	C921.648254,937.868225 1019.015320,977.713562 1109.453735,950.094238 
	C1169.092651,931.880737 1210.426880,892.800842 1234.908691,833.798279 
M574.489563,955.823486 
	C576.428650,955.372925 578.361267,954.891846 580.307800,954.476257 
	C637.944336,942.172058 681.379883,910.220520 710.852600,859.399719 
	C730.994934,824.667847 738.304016,786.727051 735.421570,747.064453 
	C733.303345,717.918457 724.733459,690.286621 709.683838,665.032776 
	C688.491150,629.470886 659.405457,602.540405 621.465820,585.403076 
	C587.277466,569.960327 551.645630,564.757629 514.502258,569.699097 
	C465.939758,576.159851 425.127625,597.823181 393.275330,634.717041 
	C353.893280,680.332458 338.586975,733.818176 347.801300,793.425354 
	C357.965607,859.178040 393.966064,907.149353 452.535309,937.832397 
	C490.265900,957.598633 530.819458,962.299316 574.489563,955.823486 
z"/>
<path fill="transparent" opacity="1.000000" stroke="none" 
	d="
M1703.275879,795.570251 
	C1709.969238,753.242798 1742.327271,721.815613 1783.564331,715.573853 
	C1846.323853,706.074402 1891.509277,754.093506 1894.539917,806.882263 
	C1895.703491,827.151367 1894.093872,846.669495 1885.940674,865.204468 
	C1869.455322,902.682617 1834.640625,927.005493 1790.451660,923.488831 
	C1744.072632,919.797913 1712.473267,886.728027 1703.945312,845.029358 
	C1700.648682,828.910217 1700.901489,812.660889 1703.275879,795.570251 
z"/>
<path fill="transparent" opacity="1.000000" stroke="none" 
	d="
M4355.872559,719.855103 
	C4396.297363,734.876160 4419.631836,772.637085 4419.798828,814.058594 
	C4419.885742,835.718933 4416.722656,856.329651 4406.049805,875.495911 
	C4387.573242,908.676514 4349.704590,927.721436 4309.247070,922.818420 
	C4272.057129,918.311646 4234.802734,884.338867 4228.022949,840.681396 
	C4224.756836,819.644897 4225.515625,798.941223 4232.577148,778.777649 
	C4246.515625,738.979736 4282.090820,711.934082 4328.818359,714.519348 
	C4337.649414,715.007874 4346.349121,717.873840 4355.872559,719.855103 
z"/>
<path fill="transparent" opacity="1.000000" stroke="none" 
	d="
M2844.618652,727.306702 
	C2862.856934,741.912476 2873.470947,757.375305 2876.016113,773.116943 
	C2813.198486,773.116943 2750.469727,773.116943 2687.676514,773.116943 
	C2687.454834,772.647644 2686.809570,771.917664 2686.973877,771.537903 
	C2703.595215,733.107971 2730.732666,710.904175 2776.424072,707.780579 
	C2801.066162,706.095947 2823.889648,712.076477 2844.618652,727.306702 
z"/>
<path fill="transparent" opacity="1.000000" stroke="none" 
	d="
M3206.865234,716.573364 
	C3228.390625,719.766907 3246.413818,727.842407 3261.470215,742.767761 
	C3278.591309,759.739624 3287.564453,780.291870 3289.781738,803.868591 
	C3291.343750,820.476013 3291.079102,837.117249 3286.029053,853.307373 
	C3265.044678,920.582031 3192.896484,938.534302 3143.584717,908.656006 
	C3116.156982,892.037598 3102.139404,866.049011 3098.479736,834.676819 
	C3095.485352,809.009399 3098.409668,783.892273 3112.566162,761.620422 
	C3132.066650,730.940796 3160.146729,715.174255 3196.991699,716.228821 
	C3199.989258,716.314575 3202.988037,716.341919 3206.865234,716.573364 
z"/>
<path fill="#0975BB" opacity="1.000000" stroke="none" 
	d="
M1234.609009,834.515686 
	C1210.426880,892.800842 1169.092651,931.880737 1109.453735,950.094238 
	C1019.015320,977.713562 921.648254,937.868225 878.604614,852.473083 
	C849.335693,794.406128 848.809387,734.717285 877.399597,676.600281 
	C905.329712,619.824890 951.640137,584.189819 1014.147888,571.930786 
	C1076.364502,559.728882 1132.457031,574.379028 1180.562256,615.786926 
	C1218.384399,648.343262 1240.277100,690.020325 1246.323608,739.798767 
	C1250.245972,772.090576 1246.444458,803.403931 1234.609009,834.515686 
z"/>
<path fill="#0975BB" opacity="1.000000" stroke="none" 
	d="
M573.627502,955.982788 
	C530.819458,962.299316 490.265900,957.598633 452.535309,937.832397 
	C393.966064,907.149353 357.965607,859.178040 347.801300,793.425354 
	C338.586975,733.818176 353.893280,680.332458 393.275330,634.717041 
	C425.127625,597.823181 465.939758,576.159851 514.502258,569.699097 
	C551.645630,564.757629 587.277466,569.960327 621.465820,585.403076 
	C659.405457,602.540405 688.491150,629.470886 709.683838,665.032776 
	C724.733459,690.286621 733.303345,717.918457 735.421570,747.064453 
	C738.304016,786.727051 730.994934,824.667847 710.852600,859.399719 
	C681.379883,910.220520 637.944336,942.172058 580.307800,954.476257 
	C578.361267,954.891846 576.428650,955.372925 573.627502,955.982788 
z"/>
</svg>